<?xml version="1.0" encoding="utf-8"?>
<!-- Generator: Adobe Illustrator 23.1.1, SVG Export Plug-In . SVG Version: 6.00 Build 0)  -->
<svg version="1.1" id="Layer_1" xmlns="http://www.w3.org/2000/svg" xmlns:xlink="http://www.w3.org/1999/xlink" x="0px" y="0px"
	 viewBox="0 0 505.5 512" style="enable-background:new 0 0 505.5 512;" xml:space="preserve">
<style type="text/css">
	.st0{fill:#FFFFFF;stroke:#000000;stroke-miterlimit:10;}
	.st1{fill:none;stroke:#000000;stroke-width:7;stroke-linecap:round;stroke-miterlimit:10;}
	.st2{fill:#F6851F;}
	.st3{fill:none;stroke:#CB5827;stroke-width:7;stroke-linecap:round;stroke-linejoin:round;stroke-miterlimit:10;}
	.st4{fill:#FFEFAF;}
	.st5{fill:#A55024;}
	.st6{fill:none;stroke:#F8C286;stroke-width:17;stroke-linecap:round;stroke-miterlimit:10;}
	.st7{fill:#F3AF76;}
	.st8{fill:#E71E25;}
	.st9{fill:#FECF09;}
	.st10{fill:#4A5FAC;}
</style>
<path class="st0" d="M441.2,403.2l-221.3,70.4c-11,3.5-22.7-2.6-26.2-13.6L90.3,135.1c-3.5-11,2.6-22.7,13.6-26.2l221.3-70.4
	c11-3.5,22.7,2.6,26.2,13.6l103.3,324.9C458.3,387.9,452.2,399.7,441.2,403.2z"/>
<line class="st1" x1="226.5" y1="449.4" x2="421.5" y2="382.5"/>
<line class="st1" x1="217.7" y1="419.3" x2="412.6" y2="352.4"/>
<line class="st1" x1="205.1" y1="382.7" x2="400.1" y2="315.8"/>
<line class="st1" x1="196.1" y1="355.5" x2="391" y2="288.6"/>
<g>
	<path class="st2" d="M132.1,11.9c0.8,0.8,1.5,1.6,2.1,2.6c5.5,8.2,3.3,19.2-4.9,24.7s-19.2,3.3-24.7-4.9c-0.6-0.9-1.2-1.9-1.6-2.9
		l-10.1,6.7l52.3,78.3l49.2-32.9L142.2,5.1L132.1,11.9z"/>
</g>
<line class="st3" x1="147.9" y1="90.3" x2="122.7" y2="52.6"/>
<line class="st3" x1="159.6" y1="82.6" x2="134.4" y2="44.9"/>
<line class="st3" x1="170.2" y1="75.4" x2="145" y2="37.7"/>
<path class="st0" d="M337.5,462.7H105.2c-11.5,0-20.9-9.3-20.9-20.9v-341c0-11.5,9.3-20.9,20.9-20.9h232.3
	c11.5,0,20.9,9.3,20.9,20.9v341C358.4,453.4,349,462.7,337.5,462.7z"/>
<path class="st0" d="M332.5,458.7H100.2c-11.5,0-20.9-9.3-20.9-20.9v-341c0-11.5,9.3-20.9,20.9-20.9h232.3
	c11.5,0,20.9,9.3,20.9,20.9v341C353.4,449.4,344,458.7,332.5,458.7z"/>
<rect x="258.2" y="341.4" transform="matrix(0.7952 -0.6063 0.6063 0.7952 -174.1377 271.6744)" class="st4" width="113.8" height="104.6"/>
<line class="st1" x1="311.2" y1="427.3" x2="356.5" y2="390.2"/>
<path class="st5" d="M327.5,452.7H95.2c-11.5,0-20.9-9.3-20.9-20.9v-341c0-11.5,9.3-20.9,20.9-20.9h232.3c11.5,0,20.9,9.3,20.9,20.9
	v341C348.4,443.4,339,452.7,327.5,452.7z"/>
<path class="st6" d="M54.8,133.1l6.3-1c7.7-1.8,16.2-1.5,24-0.3l8.9,1.3"/>
<path class="st6" d="M54.8,205.3l6.3-1c7.7-1.8,16.2-1.5,24-0.3l8.9,1.3"/>
<path class="st6" d="M54.8,277.4l6.3-1c7.7-1.8,16.2-1.5,24-0.3l8.9,1.3"/>
<path class="st6" d="M54.8,338.9l6.3-1c7.7-1.8,16.2-1.5,24-0.3l8.9,1.3"/>
<path class="st6" d="M54.8,405.6l6.3-1c7.7-1.8,16.2-1.5,24-0.3l8.9,1.3"/>
<path class="st7" d="M250.2,144.8c-18.5-18.5-48.5-18.5-66.8,0c-18.5,18.5-18.5,48.5,0,66.8l33.5,33.5l33.5-33.5
	C268.5,193.2,268.5,163.3,250.2,144.8z M216.9,199.5c-11.8,0-21.3-9.5-21.3-21.3c0-11.8,9.5-21.3,21.3-21.3
	c11.8,0,21.3,9.5,21.3,21.3C238.2,190.1,228.5,199.5,216.9,199.5z"/>
<path class="st8" d="M369.1,157h-20.7V98.5h20.7c5.2,0,9.5,4.2,9.5,9.5v39.6C378.6,152.7,374.3,157,369.1,157z"/>
<path class="st9" d="M369.1,215.6h-20.7v-58.5h20.7c5.2,0,9.5,4.2,9.5,9.5v39.6C378.6,211.3,374.3,215.6,369.1,215.6z"/>
<path class="st10" d="M369.1,274.2h-20.7v-58.5h20.7c5.2,0,9.5,4.2,9.5,9.5v39.6C378.6,270,374.3,274.2,369.1,274.2z"/>
</svg>
