<?xml version="1.0" encoding="utf-8"?>
<!-- Generator: Adobe Illustrator 23.1.1, SVG Export Plug-In . SVG Version: 6.00 Build 0)  -->
<svg version="1.1" id="Layer_1" xmlns="http://www.w3.org/2000/svg" xmlns:xlink="http://www.w3.org/1999/xlink" x="0px" y="0px"
	 viewBox="0 0 68 68" width="68" height="68" style="enable-background:new 0 0 68 68;" xml:space="preserve">
<style type="text/css">
	.st0{fill:#D87527;}
	.st1{fill:#F68825;}
	.st2{fill:#FFFFFF;}
</style>
<path class="st0" d="M51.7,16.1c-9.4-9.4-24.6-9.4-33.9,0c-9.4,9.4-9.4,24.6,0,33.9l17,17l17-17C61,40.7,61,25.5,51.7,16.1z
	 M34.7,43.9c-6,0-10.8-4.8-10.8-10.8s4.8-10.8,10.8-10.8s10.8,4.8,10.8,10.8S40.7,43.9,34.7,43.9z"/>
<path class="st1" d="M50.9,17.2c-9.4-9.4-24.6-9.4-33.9,0c-9.4,9.4-9.4,24.6,0,33.9l17,17l17-17C60.2,41.8,60.2,26.6,50.9,17.2z
	 M34,45c-6,0-10.8-4.8-10.8-10.8S28,23.4,34,23.4s10.8,4.8,10.8,10.8S39.9,45,34,45z"/>
<circle class="st2" cx="33.9" cy="34" r="10.8"/>
</svg>
